# xmcd CD database file
#
# Track frame offsets:
#	150
#	18561
#	51031
#	64117
#	84277
#	106497
#	125515
#	147434
#	165159
#	184382
#	214990
#	234715
#	256711
#	283399
#	301864
#
# Disc length: 4419 seconds
#
# Revision: 1
# Processed by: cddbd v1.4PL0 Copyright (c) Steve Scherf et al.
# Submitted via: jetAudio 5
#
DISCID=d611410f
DTITLE=Gary Moore - Blues
DYEAR=1900
DGENRE=
TTITLE0=Still Got The Blues For You
TTITLE1=Picture Of The Moon
TTITLE2=Since I Meet You Baby
TTITLE3=Cold Day In The Hell
TTITLE4=Crying In The Shadow
TTITLE5=Empty Rooms
TTITLE6=Midnight Blues
TTITLE7=One Day
TTITLE8=Out In The Fields
TTITLE9=Parisienne Walkways
TTITLE10=Ready Foe Love
TTITLE11=Separate Love
TTITLE12=Still In Love With You
TTITLE13=After The War
TTITLE14=Story Of The Blues
EXTD=Year: 2000Disc Number:316
EXTT0=
EXTT1=
EXTT2=
EXTT3=
EXTT4=
EXTT5=
EXTT6=
EXTT7=
EXTT8=
EXTT9=
EXTT10=
EXTT11=
EXTT12=
EXTT13=
EXTT14=
PLAYORDER=
